{
.appVersion = "3058";
.formatVersion = 3;
customParameters = (
{
name = panose;
value = (
2,
0,
5,
3,
0,
0,
0,
0,
0,
0
);
},
{
name = unicodeRanges;
value = (
0
);
},
{
name = fsType;
value = (
);
},
{
name = blueShift;
value = 0;
},
{
name = glyphOrder;
value = (
.notdef,
uni001D,
space,
exclam,
quotedbl,
quotesingle,
parenleft,
parenright,
period,
zero,
one,
two,
three,
four,
five,
six,
seven,
eight,
nine,
colon,
semicolon,
question,
A,
B,
C,
D,
E,
F,
G,
H,
I,
J,
K,
L,
M,
N,
O,
P,
Q,
R,
S,
T,
U,
V,
W,
X,
Y,
Z,
a,
b,
c,
d,
e,
f,
g,
h,
i,
j,
k,
l,
m,
n,
o,
p,
q,
r,
s,
t,
u,
v,
w,
x,
y,
z
);
},
{
name = "Axes ";
value = Weight;
}
);
date = "2020-11-08 23:04:09 +0000";
familyName = Regular;
fontMaster = (
{
customParameters = (
{
name = typoAscender;
value = 800;
},
{
name = typoDescender;
value = -200;
},
{
name = typoLineGap;
value = 90;
},
{
name = winAscent;
value = 789;
},
{
name = winDescent;
value = 199;
},
{
name = hheaAscender;
value = 789;
},
{
name = hheaDescender;
value = -199;
},
{
name = strikeoutPosition;
value = 258;
},
{
name = strikeoutSize;
value = 49;
},
{
name = "Alignment Zones";
value = (
{
pos = 659;
size = 1;
},
{
pos = "-179";
size = "-10";
}
);
}
);
id = "1F84B3B3-8E65-43E8-B723-492715F274E8";
metricValues = (
{
pos = 800;
},
{
over = 14;
pos = 617;
},
{
over = 14;
pos = 465;
},
{
over = -5;
},
{
pos = -200;
}
);
name = "Instance 1";
stemValues = (
41,
48,
55,
66,
150,
79,
89
);
}
);
glyphs = (
{
glyphname = .notdef;
layers = (
{
hints = (
{
horizontal = 1;
place = (0, 50);
place = (0, 50);
type = Stem;
},
{
horizontal = 1;
place = (483, 50);
place = (483, 50);
type = Stem;
},
{
place = (50, 50);
place = (50, 50);
type = Stem;
},
{
place = (400, 50);
place = (400, 50);
type = Stem;
}
);
layerId = "1F84B3B3-8E65-43E8-B723-492715F274E8";
shapes = (
{
closed = 1;
nodes = (
(50,0,l),
(450,0,l),
(450,533,l),
(50,533,l)
);
},
{
closed = 1;
nodes = (
(100,50,l),
(100,483,l),
(400,483,l),
(400,50,l)
);
}
);
width = 500;
}
);
note = .notdef;
},
{
glyphname = uni001D;
layers = (
{
layerId = "1F84B3B3-8E65-43E8-B723-492715F274E8";
shapes = (
{
closed = 1;
nodes = (
(221,612,l),
(372,604,o),
(620,591,o),
(608,591,cs),
(596,591,o),
(608,162,o),
(608,168,cs),
(608,174,o),
(221,168,o),
(221,168,c)
);
}
);
width = 1000;
}
);
note = uni001D;
},
{
glyphname = exclam;
lastChange = "2021-03-03 17:51:32 +0000";
layers = (
{
hints = (
{
horizontal = 1;
place = (-2, 133);
place = (-2, 133);
type = Stem;
},
{
place = (49, 138);
place = (49, 138);
type = Stem;
}
);
layerId = "1F84B3B3-8E65-43E8-B723-492715F274E8";
shapes = (
{
closed = 1;
nodes = (
(49,45,o),
(55,29,o),
(67,17,cs),
(78,4,o),
(95,-2,o),
(118,-2,cs),
(140,-2,o),
(158,4,o),
(169,17,cs),
(181,29,o),
(187,45,o),
(187,64,cs),
(187,83,o),
(181,99,o),
(169,112,cs),
(158,125,o),
(140,131,o),
(118,131,cs),
(95,131,o),
(78,125,o),
(67,112,cs),
(55,99,o),
(49,83,o),
(49,64,cs)
);
},
{
closed = 1;
nodes = (
(177,201,l),
(154,650,l),
(71,650,l),
(51,201,l)
);
}
);
width = 238;
}
);
note = exclam;
unicode = 33;
},
{
glyphname = quotedbl;
lastChange = "2021-03-03 17:51:32 +0000";
layers = (
{
hints = (
{
horizontal = 1;
place = (482, 212);
place = (482, 212);
type = Stem;
},
{
place = (76, 60);
place = (76, 60);
type = Stem;
},
{
place = (76, 48);
place = (76, 48);
type = Stem;
},
{
place = (192, 60);
place = (192, 60);
type = Stem;
},
{
place = (192, 48);
place = (192, 48);
type = Stem;
}
);
layerId = "1F84B3B3-8E65-43E8-B723-492715F274E8";
shapes = (
{
closed = 1;
nodes = (
(136,636,l),
(136,694,l),
(76,694,l),
(76,482,l),
(123,482,l)
);
},
{
closed = 1;
nodes = (
(252,636,l),
(252,694,l),
(192,694,l),
(192,482,l),
(239,482,l)
);
}
);
width = 308;
}
);
note = quotedbl;
unicode = 34;
},
{
glyphname = quotesingle;
lastChange = "2021-03-03 17:51:32 +0000";
layers = (
{
hints = (
{
horizontal = 1;
place = (487, 219);
place = (487, 219);
type = Stem;
},
{
place = (74, 78);
place = (74, 78);
type = Stem;
}
);
layerId = "1F84B3B3-8E65-43E8-B723-492715F274E8";
shapes = (
{
closed = 1;
nodes = (
(77,487,l),
(98,505,o),
(116,528,o),
(130,557,cs),
(145,586,o),
(152,615,o),
(152,644,cs),
(152,706,l),
(74,706,l),
(74,634,ls),
(73,595,o),
(59,556,o),
(32,518,c)
);
}
);
width = 194;
}
);
note = quotesingle;
unicode = 39;
},
{
glyphname = parenleft;
lastChange = "2021-03-03 17:51:32 +0000";
layers = (
{
layerId = "1F84B3B3-8E65-43E8-B723-492715F274E8";
shapes = (
{
closed = 1;
nodes = (
(22,236,o),
(40,116,o),
(94,10,cs),
(122,-44,o),
(153,-84,o),
(188,-110,c),
(211,-64,l),
(206,-59,o),
(201,-53,o),
(197,-47,cs),
(193,-41,o),
(190,-35,o),
(187,-29,cs),
(184,-24,o),
(181,-17,o),
(178,-9,cs),
(174,0,o),
(172,7,o),
(170,12,cs),
(168,18,o),
(165,26,o),
(162,36,cs),
(159,47,o),
(156,55,o),
(154,61,cs),
(140,113,o),
(131,160,o),
(126,202,cs),
(121,243,o),
(118,272,o),
(119,289,cs),
(120,306,o),
(121,328,o),
(124,354,cs),
(130,390,ls),
(136,425,o),
(140,450,o),
(144,467,cs),
(147,483,o),
(153,504,o),
(162,529,cs),
(171,554,o),
(183,579,o),
(197,604,cs),
(233,665,o),
(273,709,o),
(319,736,c),
(310,790,l),
(270,775,o),
(230,746,o),
(190,702,cs),
(149,658,o),
(116,608,o),
(91,551,cs),
(66,495,o),
(49,434,o),
(40,370,cs)
);
}
);
width = 366;
}
);
note = parenleft;
unicode = 40;
},
{
glyphname = parenright;
lastChange = "2021-03-03 17:51:32 +0000";
layers = (
{
hints = (
{
place = (164, 90);
place = (164, 90);
type = Stem;
}
);
layerId = "1F84B3B3-8E65-43E8-B723-492715F274E8";
shapes = (
{
closed = 1;
nodes = (
(225,125,o),
(253,241,o),
(254,377,cs),
(255,441,o),
(247,504,o),
(230,563,cs),
(213,623,o),
(191,684,o),
(149,725,cs),
(108,765,o),
(119,753,o),
(85,778,c),
(69,727,l),
(98,699,o),
(113,666,o),
(127,630,cs),
(161,546,o),
(162,491,o),
(164,410,cs),
(164,373,ls),
(162,315,o),
(161,249,o),
(93,87,c),
(69,38,o),
(53,-2,o),
(20,-29,c),
(36,-78,l),
(74,-57,o),
(121,-21,o),
(156,28,cs)
);
}
);
width = 318;
}
);
note = parenright;
unicode = 41;
},
{
glyphname = period;
lastChange = "2021-03-03 17:51:32 +0000";
layers = (
{
hints = (
{
horizontal = 1;
place = (1, 95);
place = (1, 95);
type = Stem;
},
{
place = (44, 99);
place = (44, 99);
type = Stem;
}
);
layerId = "1F84B3B3-8E65-43E8-B723-492715F274E8";
shapes = (
{
closed = 1;
nodes = (
(44,35,o),
(48,24,o),
(57,15,cs),
(65,6,o),
(77,1,o),
(93,1,cs),
(110,1,o),
(122,6,o),
(131,15,cs),
(139,24,o),
(143,35,o),
(143,48,cs),
(143,61,o),
(139,73,o),
(131,82,cs),
(122,91,o),
(110,96,o),
(93,96,cs),
(77,96,o),
(65,91,o),
(57,82,cs),
(48,73,o),
(44,61,o),
(44,48,cs)
);
}
);
width = 202;
}
);
note = period;
unicode = 46;
},
{
glyphname = zero;
lastChange = "2021-03-03 17:51:32 +0000";
layers = (
{
hints = (
{
horizontal = 1;
place = (-3, 154);
place = (-3, 154);
type = Stem;
},
{
horizontal = 1;
place = (575, 65);
place = (575, 65);
type = Stem;
},
{
place = (44, 89);
place = (44, 89);
type = Stem;
},
{
place = (369, 98);
place = (369, 98);
type = Stem;
}
);
layerId = "1F84B3B3-8E65-43E8-B723-492715F274E8";
shapes = (
{
closed = 1;
nodes = (
(467,376,ls),
(466,466,o),
(449,532,o),
(418,575,cs),
(402,596,o),
(379,612,o),
(349,623,cs),
(319,634,o),
(286,640,o),
(251,640,cs),
(216,640,o),
(185,634,o),
(157,623,cs),
(129,611,o),
(107,595,o),
(91,573,cs),
(60,528,o),
(44,460,o),
(44,368,cs),
(44,262,ls),
(45,174,o),
(61,108,o),
(93,63,cs),
(109,42,o),
(131,25,o),
(159,14,cs),
(187,3,o),
(218,-3,o),
(252,-3,cs),
(275,-3,o),
(297,0,o),
(318,4,cs),
(339,9,o),
(359,17,o),
(377,27,cs),
(394,38,o),
(409,50,o),
(419,65,cs),
(451,110,o),
(467,179,o),
(467,273,cs)
);
},
{
closed = 1;
nodes = (
(369,340,ls),
(368,275,o),
(358,227,o),
(339,196,cs),
(320,166,o),
(291,151,o),
(252,151,cs),
(212,151,o),
(182,167,o),
(163,199,cs),
(143,231,o),
(133,281,o),
(133,349,cs),
(133,387,ls),
(134,451,o),
(143,498,o),
(162,529,cs),
(181,559,o),
(210,575,o),
(251,575,cs),
(292,575,o),
(322,559,o),
(341,528,cs),
(360,498,o),
(369,449,o),
(369,381,cs)
);
}
);
width = 536;
}
);
note = zero;
unicode = 48;
},
{
glyphname = one;
lastChange = "2021-03-03 17:51:32 +0000";
layers = (
{
hints = (
{
horizontal = 1;
place = (472, 21);
target = up;
type = BottomGhost;
},
{
horizontal = 1;
place = (627, -20);
target = down;
type = TopGhost;
},
{
place = (202, 126);
place = (202, 126);
type = Stem;
},
{
place = (227, 80);
place = (227, 80);
type = Stem;
}
);
layerId = "1F84B3B3-8E65-43E8-B723-492715F274E8";
shapes = (
{
closed = 1;
nodes = (
(328,0,l),
(307,627,l),
(295,627,l),
(67,541,l),
(67,472,l),
(227,545,l),
(202,-2,l)
);
}
);
width = 450;
}
);
note = one;
unicode = 49;
},
{
glyphname = two;
lastChange = "2021-03-03 17:51:32 +0000";
layers = (
{
hints = (
{
horizontal = 1;
place = (0, 144);
place = (0, 144);
type = Stem;
},
{
horizontal = 1;
place = (568, 65);
place = (568, 65);
type = Stem;
},
{
place = (50, 77);
place = (50, 77);
type = Stem;
},
{
place = (368, 80);
place = (368, 80);
type = Stem;
}
);
layerId = "1F84B3B3-8E65-43E8-B723-492715F274E8";
shapes = (
{
closed = 1;
nodes = (
(462,0,l),
(476,143,l),
(247,143,l),
(330,246,l),
(408,331,o),
(448,405,o),
(448,466,cs),
(448,517,o),
(431,558,o),
(397,588,cs),
(363,619,o),
(317,634,o),
(259,634,cs),
(201,634,o),
(151,616,o),
(110,580,cs),
(95,568,o),
(83,554,o),
(74,538,cs),
(65,523,o),
(57,502,o),
(50,474,c),
(127,434,l),
(136,483,o),
(149,517,o),
(167,535,cs),
(189,557,o),
(219,568,o),
(259,568,cs),
(292,568,o),
(318,558,o),
(338,537,cs),
(358,516,o),
(368,489,o),
(368,457,cs),
(368,432,o),
(362,409,o),
(349,386,cs),
(337,363,o),
(315,334,o),
(283,297,cs),
(66,57,l),
(66,0,l)
);
}
);
width = 578;
}
);
note = two;
unicode = 50;
},
{
glyphname = three;
lastChange = "2021-03-03 17:51:32 +0000";
layers = (
{
hints = (
{
horizontal = 1;
place = (-3, 122);
place = (-3, 122);
type = Stem;
},
{
horizontal = 1;
place = (292, 76);
place = (292, 76);
type = Stem;
},
{
horizontal = 1;
place = (470, 21);
target = up;
type = BottomGhost;
},
{
horizontal = 1;
place = (581, 59);
place = (581, 59);
type = Stem;
},
{
place = (349, 93);
place = (349, 93);
type = Stem;
},
{
place = (346, 79);
place = (346, 79);
type = Stem;
}
);
layerId = "1F84B3B3-8E65-43E8-B723-492715F274E8";
shapes = (
{
closed = 1;
nodes = (
(166,368,l),
(166,292,l),
(225,292,ls),
(268,292,o),
(300,282,o),
(322,262,cs),
(340,247,o),
(349,230,o),
(349,210,cs),
(349,196,o),
(347,185,o),
(344,176,cs),
(341,168,o),
(335,159,o),
(325,149,cs),
(305,129,o),
(275,119,o),
(237,119,cs),
(201,119,o),
(172,129,o),
(151,149,cs),
(129,168,o),
(116,190,o),
(109,215,c),
(39,127,l),
(41,119,o),
(44,113,o),
(47,107,cs),
(49,101,o),
(52,96,o),
(55,91,cs),
(58,86,o),
(60,82,o),
(62,79,cs),
(64,76,o),
(67,73,o),
(70,69,cs),
(73,65,o),
(76,63,o),
(77,61,cs),
(79,60,o),
(81,57,o),
(85,53,cs),
(90,49,o),
(92,46,o),
(94,45,cs),
(125,13,o),
(173,-3,o),
(237,-3,cs),
(300,-3,o),
(350,14,o),
(387,46,cs),
(424,79,o),
(442,124,o),
(442,180,cs),
(442,226,o),
(433,261,o),
(414,286,cs),
(400,305,o),
(372,321,o),
(327,335,c),
(339,340,o),
(349,344,o),
(356,348,cs),
(363,351,o),
(371,356,o),
(379,362,cs),
(387,369,o),
(394,376,o),
(399,384,cs),
(417,409,o),
(426,436,o),
(426,463,cs),
(426,518,o),
(409,562,o),
(375,593,cs),
(342,624,o),
(296,640,o),
(237,640,cs),
(173,640,o),
(127,623,o),
(98,591,cs),
(82,571,o),
(71,557,o),
(66,549,cs),
(60,540,o),
(55,526,o),
(48,507,c),
(118,470,l),
(118,471,o),
(119,475,o),
(121,480,cs),
(122,486,o),
(123,490,o),
(124,491,cs),
(124,493,o),
(125,496,o),
(127,501,cs),
(128,506,o),
(129,509,o),
(130,511,cs),
(131,513,o),
(132,515,o),
(134,520,cs),
(135,524,o),
(137,527,o),
(138,529,cs),
(139,531,o),
(141,533,o),
(142,536,cs),
(144,539,o),
(146,542,o),
(148,544,cs),
(150,547,o),
(152,549,o),
(154,551,cs),
(175,571,o),
(202,581,o),
(237,581,cs),
(274,581,o),
(302,573,o),
(320,558,cs),
(337,543,o),
(346,517,o),
(346,482,cs),
(346,445,o),
(335,417,o),
(314,398,cs),
(292,379,o),
(263,369,o),
(225,368,cs)
);
}
);
width = 520;
}
);
note = three;
unicode = 51;
},
{
glyphname = four;
lastChange = "2021-03-03 17:51:32 +0000";
layers = (
{
hints = (
{
horizontal = 1;
place = (1, 21);
target = up;
type = BottomGhost;
},
{
horizontal = 1;
place = (146, 65);
place = (146, 65);
type = Stem;
},
{
horizontal = 1;
place = (626, -20);
target = down;
type = TopGhost;
},
{
place = (311, 100);
place = (311, 100);
type = Stem;
},
{
place = (321, 76);
place = (321, 76);
type = Stem;
}
);
layerId = "1F84B3B3-8E65-43E8-B723-492715F274E8";
shapes = (
{
closed = 1;
nodes = (
(411,211,l),
(397,626,l),
(312,626,l),
(32,193,l),
(32,146,l),
(309,146,l),
(296,1,l),
(430,1,l),
(412,146,l),
(484,146,l),
(484,211,l)
);
},
{
closed = 1;
nodes = (
(109,211,l),
(311,516,l),
(321,534,l),
(311,211,l)
);
}
);
width = 538;
}
);
note = four;
unicode = 52;
},
{
glyphname = five;
lastChange = "2021-03-03 17:51:32 +0000";
layers = (
{
hints = (
{
horizontal = 1;
place = (-3, 131);
place = (-3, 131);
type = Stem;
},
{
horizontal = 1;
place = (351, 63);
place = (351, 63);
type = Stem;
},
{
horizontal = 1;
place = (558, 73);
place = (558, 73);
type = Stem;
},
{
place = (352, 110);
place = (352, 110);
type = Stem;
}
);
layerId = "1F84B3B3-8E65-43E8-B723-492715F274E8";
shapes = (
{
closed = 1;
nodes = (
(65,319,l),
(129,303,l),
(150,320,ls),
(169,335,o),
(197,351,o),
(231,351,cs),
(269,351,o),
(299,338,o),
(322,313,cs),
(345,288,o),
(352,269,o),
(352,240,cs),
(352,217,o),
(346,191,o),
(325,166,cs),
(304,141,o),
(284,128,o),
(238,128,cs),
(204,128,o),
(191,130,o),
(166,141,cs),
(149,149,o),
(126,170,o),
(111,179,c),
(43,109,l),
(61,85,o),
(67,74,o),
(102,43,cs),
(137,12,o),
(182,-3,o),
(238,-3,cs),
(300,-3,o),
(375,16,o),
(410,53,cs),
(444,90,o),
(462,141,o),
(462,205,cs),
(462,269,o),
(445,320,o),
(411,358,cs),
(378,395,o),
(333,414,o),
(276,414,cs),
(237,414,o),
(176,405,o),
(145,387,c),
(164,558,l),
(403,558,l),
(417,631,l),
(97,631,l)
);
}
);
width = 556;
}
);
note = five;
unicode = 53;
},
{
glyphname = six;
lastChange = "2021-03-03 17:51:32 +0000";
layers = (
{
hints = (
{
horizontal = 1;
place = (-3, 122);
place = (-3, 122);
type = Stem;
},
{
horizontal = 1;
place = (360, 66);
place = (360, 66);
type = Stem;
},
{
horizontal = 1;
place = (574, 67);
place = (574, 67);
type = Stem;
},
{
place = (34, 80);
place = (34, 80);
type = Stem;
},
{
place = (346, 101);
place = (346, 101);
type = Stem;
}
);
layerId = "1F84B3B3-8E65-43E8-B723-492715F274E8";
shapes = (
{
closed = 1;
nodes = (
(341,642,l),
(327,642,ls),
(230,640,o),
(157,609,o),
(108,548,cs),
(59,487,o),
(34,399,o),
(34,284,cs),
(34,244,ls),
(34,171,o),
(53,112,o),
(90,66,cs),
(127,20,o),
(193,-3,o),
(253,-3,cs),
(312,-3,o),
(359,16,o),
(394,55,cs),
(429,94,o),
(447,145,o),
(447,210,cs),
(447,270,o),
(430,330,o),
(398,368,cs),
(365,407,o),
(322,426,o),
(267,426,cs),
(210,426,o),
(148,407,o),
(115,369,c),
(121,434,o),
(142,484,o),
(179,519,cs),
(216,555,o),
(258,573,o),
(320,574,cs),
(321,574,l)
);
},
{
closed = 1;
nodes = (
(271,360,o),
(299,347,o),
(320,320,cs),
(341,294,o),
(346,258,o),
(346,238,cs),
(346,217,o),
(333,171,o),
(319,151,cs),
(304,130,o),
(281,119,o),
(236,119,cs),
(178,119,o),
(167,135,o),
(149,154,cs),
(131,173,o),
(114,207,o),
(114,245,cs),
(114,274,l),
(123,299,o),
(139,319,o),
(162,335,cs),
(185,352,o),
(210,360,o),
(237,360,cs)
);
}
);
width = 502;
}
);
note = six;
unicode = 54;
},
{
glyphname = seven;
lastChange = "2021-03-03 17:51:32 +0000";
layers = (
{
hints = (
{
horizontal = 1;
place = (0, 21);
target = up;
type = BottomGhost;
},
{
horizontal = 1;
place = (560, 65);
place = (560, 65);
type = Stem;
}
);
layerId = "1F84B3B3-8E65-43E8-B723-492715F274E8";
shapes = (
{
closed = 1;
nodes = (
(456,581,l),
(456,626,l),
(33,626,l),
(33,560,l),
(371,560,l),
(70,0,l),
(255,0,l)
);
}
);
width = 482;
}
);
note = seven;
unicode = 55;
},
{
glyphname = eight;
lastChange = "2021-03-03 17:51:32 +0000";
layers = (
{
hints = (
{
horizontal = 1;
place = (-3, 128);
place = (-3, 128);
type = Stem;
},
{
horizontal = 1;
place = (334, 57);
place = (334, 57);
type = Stem;
},
{
horizontal = 1;
place = (606, 34);
place = (606, 34);
type = Stem;
},
{
place = (66, 79);
place = (66, 79);
type = Stem;
},
{
place = (355, 79);
place = (355, 79);
type = Stem;
},
{
place = (27, 103);
place = (27, 103);
type = Stem;
},
{
place = (369, 99);
place = (369, 99);
type = Stem;
}
);
layerId = "1F84B3B3-8E65-43E8-B723-492715F274E8";
shapes = (
{
closed = 1;
nodes = (
(434,516,o),
(432,531,o),
(428,543,cs),
(424,555,o),
(419,565,o),
(412,573,cs),
(406,581,o),
(396,591,o),
(383,602,cs),
(356,627,o),
(311,640,o),
(250,640,cs),
(188,640,o),
(144,627,o),
(116,602,cs),
(97,585,o),
(84,570,o),
(77,556,cs),
(69,543,o),
(66,524,o),
(66,499,cs),
(66,468,o),
(74,440,o),
(90,416,cs),
(106,392,o),
(128,373,o),
(155,359,c),
(105,337,o),
(73,317,o),
(60,297,cs),
(38,265,o),
(27,234,o),
(27,206,cs),
(27,171,o),
(30,142,o),
(37,117,cs),
(44,92,o),
(58,68,o),
(81,45,cs),
(97,29,o),
(121,17,o),
(153,9,cs),
(184,1,o),
(217,-3,o),
(250,-3,cs),
(283,-3,o),
(314,1,o),
(344,9,cs),
(375,17,o),
(398,29,o),
(414,45,cs),
(427,59,o),
(438,72,o),
(446,85,cs),
(454,98,o),
(460,112,o),
(463,128,cs),
(466,143,o),
(468,155,o),
(468,164,cs),
(469,173,o),
(469,186,o),
(469,206,cs),
(469,235,o),
(458,265,o),
(435,297,cs),
(421,318,o),
(390,338,o),
(343,358,c),
(371,372,o),
(393,391,o),
(410,416,cs),
(426,440,o),
(434,468,o),
(434,499,cs)
);
},
{
closed = 1;
nodes = (
(369,190,o),
(359,167,o),
(338,146,cs),
(324,132,o),
(295,125,o),
(250,125,cs),
(205,125,o),
(176,132,o),
(162,145,cs),
(140,167,o),
(129,190,o),
(129,215,cs),
(129,250,o),
(141,279,o),
(163,301,cs),
(185,323,o),
(213,334,o),
(249,334,cs),
(285,334,o),
(314,323,o),
(336,301,cs),
(358,279,o),
(369,250,o),
(369,215,cs)
);
},
{
closed = 1;
nodes = (
(280,606,o),
(305,596,o),
(325,575,cs),
(345,555,o),
(355,530,o),
(355,498,cs),
(355,466,o),
(345,440,o),
(326,421,cs),
(307,401,o),
(282,391,o),
(250,391,cs),
(218,391,o),
(193,401,o),
(174,421,cs),
(155,440,o),
(145,466,o),
(145,498,cs),
(145,531,o),
(155,557,o),
(174,577,cs),
(193,596,o),
(219,606,o),
(250,606,cs)
);
}
);
width = 524;
}
);
note = eight;
unicode = 56;
},
{
glyphname = nine;
lastChange = "2021-03-03 17:51:32 +0000";
layers = (
{
hints = (
{
horizontal = 1;
place = (-3, 131);
place = (-3, 131);
type = Stem;
},
{
horizontal = 1;
place = (207, 95);
place = (207, 95);
type = Stem;
},
{
horizontal = 1;
place = (595, 37);
place = (595, 37);
type = Stem;
},
{
place = (45, 78);
place = (45, 78);
type = Stem;
},
{
place = (359, 80);
place = (359, 80);
type = Stem;
}
);
layerId = "1F84B3B3-8E65-43E8-B723-492715F274E8";
shapes = (
{
closed = 1;
nodes = (
(355,201,o),
(324,175,o),
(299,155,cs),
(270,132,o),
(215,128,o),
(150,128,cs),
(133,128,l),
(133,-3,l),
(149,-3,ls),
(246,-3,o),
(318,28,o),
(366,84,cs),
(415,140,o),
(439,229,o),
(439,350,cs),
(439,373,ls),
(439,453,o),
(421,516,o),
(385,563,cs),
(349,609,o),
(301,632,o),
(239,632,cs),
(200,632,o),
(166,623,o),
(137,606,cs),
(107,588,o),
(85,562,o),
(69,529,cs),
(53,495,o),
(45,457,o),
(45,416,cs),
(45,377,o),
(52,341,o),
(67,309,cs),
(81,277,o),
(102,252,o),
(129,234,cs),
(156,216,o),
(187,207,o),
(223,207,cs),
(251,207,o),
(276,213,o),
(299,225,cs),
(318,235,o),
(345,256,o),
(359,273,c)
);
},
{
closed = 1;
nodes = (
(195,302,o),
(166,316,o),
(146,343,cs),
(125,371,o),
(123,406,o),
(123,449,cs),
(123,493,o),
(134,528,o),
(155,555,cs),
(176,582,o),
(204,595,o),
(239,595,cs),
(274,595,o),
(302,579,o),
(325,546,cs),
(348,513,o),
(359,471,o),
(359,419,cs),
(359,387,l),
(336,328,o),
(307,303,o),
(239,302,cs)
);
}
);
width = 492;
}
);
note = nine;
unicode = 57;
},
{
glyphname = colon;
lastChange = "2021-03-03 17:51:32 +0000";
layers = (
{
hints = (
{
horizontal = 1;
place = (64, 114);
place = (64, 114);
type = Stem;
},
{
horizontal = 1;
place = (421, 114);
place = (421, 114);
type = Stem;
},
{
place = (25, 119);
place = (25, 119);
type = Stem;
}
);
layerId = "1F84B3B3-8E65-43E8-B723-492715F274E8";
shapes = (
{
closed = 1;
nodes = (
(25,104,o),
(30,91,o),
(40,80,cs),
(50,70,o),
(65,64,o),
(85,64,cs),
(104,64,o),
(119,70,o),
(130,80,cs),
(140,91,o),
(145,104,o),
(145,120,cs),
(145,137,o),
(140,151,o),
(130,162,cs),
(119,173,o),
(104,179,o),
(85,179,cs),
(65,179,o),
(50,173,o),
(40,162,cs),
(30,151,o),
(25,137,o),
(25,120,cs)
);
},
{
closed = 1;
nodes = (
(26,461,o),
(31,448,o),
(41,437,cs),
(51,426,o),
(65,421,o),
(85,421,cs),
(105,421,o),
(120,426,o),
(130,437,cs),
(140,448,o),
(145,461,o),
(145,477,cs),
(145,493,o),
(140,507,o),
(130,518,cs),
(120,529,o),
(105,535,o),
(85,535,cs),
(65,535,o),
(51,529,o),
(41,518,cs),
(31,507,o),
(26,493,o),
(26,477,cs)
);
}
);
width = 206;
}
);
note = colon;
unicode = 58;
},
{
glyphname = semicolon;
lastChange = "2021-03-03 17:51:32 +0000";
layers = (
{
hints = (
{
horizontal = 1;
place = (503, 95);
place = (503, 95);
type = Stem;
},
{
place = (62, 78);
place = (62, 78);
type = Stem;
},
{
place = (50, 99);
place = (50, 99);
type = Stem;
}
);
layerId = "1F84B3B3-8E65-43E8-B723-492715F274E8";
shapes = (
{
closed = 1;
nodes = (
(65,3,l),
(86,21,o),
(104,44,o),
(118,73,cs),
(133,102,o),
(140,131,o),
(140,160,cs),
(140,222,l),
(62,222,l),
(62,150,ls),
(61,111,o),
(47,72,o),
(20,34,c)
);
},
{
closed = 1;
nodes = (
(50,549,ls),
(50,536,o),
(54,525,o),
(62,516,cs),
(70,507,o),
(82,503,o),
(99,503,cs),
(115,503,o),
(128,507,o),
(136,516,cs),
(144,525,o),
(149,536,o),
(149,549,cs),
(149,563,o),
(144,574,o),
(136,584,cs),
(128,593,o),
(115,597,o),
(99,597,cs),
(82,597,o),
(70,593,o),
(62,584,cs),
(54,574,o),
(50,563,o),
(50,549,cs)
);
}
);
width = 212;
}
);
note = semicolon;
unicode = 59;
},
{
glyphname = question;
lastChange = "2021-03-03 17:51:32 +0000";
layers = (
{
hints = (
{
horizontal = 1;
place = (-13, 134);
place = (-13, 134);
type = Stem;
},
{
horizontal = 1;
place = (600, 58);
place = (600, 58);
type = Stem;
},
{
place = (106, 113);
place = (106, 113);
type = Stem;
},
{
place = (280, 79);
place = (280, 79);
type = Stem;
},
{
place = (96, 138);
place = (96, 138);
type = Stem;
}
);
layerId = "1F84B3B3-8E65-43E8-B723-492715F274E8";
shapes = (
{
closed = 1;
nodes = (
(219,172,l),
(219,216,o),
(222,277,o),
(243,300,cs),
(290,346,ls),
(336,395,o),
(359,444,o),
(359,494,cs),
(359,545,o),
(344,585,o),
(314,614,cs),
(284,643,o),
(241,658,o),
(187,657,cs),
(135,657,o),
(108,643,o),
(86,627,cs),
(51,602,o),
(51,596,o),
(33,575,c),
(73,521,l),
(91,550,o),
(99,561,o),
(117,577,cs),
(135,592,o),
(158,600,o),
(187,600,cs),
(217,600,o),
(240,591,o),
(256,574,cs),
(272,557,o),
(280,534,o),
(280,504,cs),
(280,473,o),
(258,436,o),
(234,409,c),
(157,351,l),
(135,327,o),
(121,300,o),
(113,281,cs),
(106,261,o),
(106,206,o),
(106,172,c)
);
},
{
closed = 1;
nodes = (
(96,34,o),
(102,18,o),
(113,6,cs),
(125,-7,o),
(142,-13,o),
(165,-13,cs),
(188,-13,o),
(205,-7,o),
(217,6,cs),
(229,18,o),
(235,34,o),
(235,53,cs),
(235,73,o),
(229,89,o),
(217,102,cs),
(205,115,o),
(188,121,o),
(165,121,cs),
(142,121,o),
(125,115,o),
(113,102,cs),
(102,89,o),
(96,73,o),
(96,53,cs)
);
}
);
width = 432;
}
);
note = question;
unicode = 63;
},
{
glyphname = A;
lastChange = "2021-03-03 17:51:32 +0000";
layers = (
{
hints = (
{
horizontal = 1;
place = (0, 21);
target = up;
type = BottomGhost;
},
{
horizontal = 1;
place = (85, 146);
place = (85, 146);
type = Stem;
},
{
horizontal = 1;
place = (625, -20);
target = down;
type = TopGhost;
}
);
layerId = "1F84B3B3-8E65-43E8-B723-492715F274E8";
shapes = (
{
closed = 1;
nodes = (
(435,137,l),
(487,0,l),
(587,0,l),
(348,625,l),
(276,625,l),
(37,0,l),
(137,0,l),
(187,137,l)
);
},
{
closed = 1;
nodes = (
(212,231,l),
(312,523,l),
(410,231,l)
);
}
);
width = 638;
}
);
note = A;
unicode = 65;
},
{
glyphname = B;
lastChange = "2021-03-03 17:51:32 +0000";
layers = (
{
hints = (
{
horizontal = 1;
place = (0, 151);
place = (0, 151);
type = Stem;
},
{
horizontal = 1;
place = (293, 66);
place = (293, 66);
type = Stem;
},
{
horizontal = 1;
place = (562, 64);
place = (562, 64);
type = Stem;
},
{
place = (40, 82);
place = (40, 82);
type = Stem;
},
{
place = (366, 83);
place = (366, 83);
type = Stem;
}
);
layerId = "1F84B3B3-8E65-43E8-B723-492715F274E8";
shapes = (
{
closed = 1;
nodes = (
(37,0,l),
(254,0,ls),
(289,0,o),
(322,4,o),
(354,12,cs),
(386,21,o),
(410,32,o),
(428,48,cs),
(464,80,o),
(482,124,o),
(483,180,cs),
(483,217,o),
(473,248,o),
(453,275,cs),
(437,297,o),
(404,315,o),
(353,329,c),
(382,341,o),
(404,359,o),
(421,381,cs),
(438,403,o),
(446,429,o),
(446,458,cs),
(446,513,o),
(429,555,o),
(395,583,cs),
(361,611,o),
(310,625,o),
(242,625,cs),
(37,625,l)
);
},
{
closed = 1;
nodes = (
(120,359,l),
(120,562,l),
(242,562,ls),
(283,562,o),
(313,554,o),
(333,538,cs),
(353,523,o),
(363,498,o),
(363,463,cs),
(363,429,o),
(352,404,o),
(331,386,cs),
(309,368,o),
(280,359,o),
(244,359,cs)
);
},
{
closed = 1;
nodes = (
(119,293,l),
(257,292,ls),
(302,292,o),
(344,290,o),
(366,274,cs),
(384,261,o),
(399,233,o),
(398,188,cs),
(398,151,o),
(383,130,o),
(358,116,cs),
(335,101,o),
(299,103,o),
(256,103,cs),
(119,103,l)
);
}
);
width = 513;
}
);
note = B;
unicode = 66;
},
{
glyphname = C;
lastChange = "2021-03-03 17:51:32 +0000";
layers = (
{
hints = (
{
horizontal = 1;
place = (-12, 150);
place = (-12, 150);
type = Stem;
},
{
horizontal = 1;
place = (563, 63);
place = (563, 63);
type = Stem;
},
{
place = (36, 82);
place = (36, 82);
type = Stem;
}
);
layerId = "1F84B3B3-8E65-43E8-B723-492715F274E8";
shapes = (
{
closed = 1;
nodes = (
(348,-13,o),
(405,3,o),
(446,39,cs),
(487,74,o),
(515,133,o),
(520,187,c),
(429,202,l),
(420,141,o),
(394,122,o),
(378,109,cs),
(365,99,o),
(320,83,o),
(277,83,cs),
(231,83,o),
(182,117,o),
(162,145,cs),
(139,176,o),
(119,219,o),
(119,287,cs),
(119,336,ls),
(119,407,o),
(134,467,o),
(164,505,cs),
(194,544,o),
(235,563,o),
(287,563,cs),
(330,563,o),
(362,553,o),
(384,529,cs),
(408,502,o),
(426,476,o),
(432,423,c),
(520,432,l),
(511,501,o),
(487,537,o),
(447,574,cs),
(407,611,o),
(353,626,o),
(287,626,cs),
(237,626,o),
(194,615,o),
(156,591,cs),
(118,568,o),
(89,534,o),
(68,490,cs),
(47,446,o),
(37,396,o),
(37,338,cs),
(37,278,ls),
(37,190,o),
(56,117,o),
(100,64,cs),
(145,11,o),
(206,-13,o),
(280,-13,cs)
);
}
);
width = 557;
}
);
note = C;
unicode = 67;
},
{
glyphname = D;
lastChange = "2021-03-03 17:51:32 +0000";
layers = (
{
hints = (
{
horizontal = 1;
place = (-2, 150);
place = (-2, 150);
type = Stem;
},
{
horizontal = 1;
place = (560, 63);
place = (560, 63);
type = Stem;
},
{
place = (48, 88);
place = (48, 88);
type = Stem;
},
{
place = (425, 130);
place = (425, 130);
type = Stem;
}
);
layerId = "1F84B3B3-8E65-43E8-B723-492715F274E8";
shapes = (
{
closed = 1;
nodes = (
(37,-2,l),
(210,-2,ls),
(267,-2,o),
(335,9,o),
(377,32,cs),
(419,56,o),
(451,89,o),
(473,134,cs),
(496,178,o),
(506,233,o),
(506,292,cs),
(506,332,ls),
(506,389,o),
(494,440,o),
(471,485,cs),
(448,529,o),
(416,563,o),
(374,587,cs),
(332,611,o),
(268,623,o),
(214,623,cs),
(37,623,l)
);
},
{
closed = 1;
nodes = (
(126,560,l),
(222,560,ls),
(283,560,o),
(331,539,o),
(364,500,cs),
(397,460,o),
(414,405,o),
(414,334,cs),
(414,289,ls),
(414,216,o),
(392,176,o),
(361,144,cs),
(327,109,o),
(276,94,o),
(212,94,cs),
(126,94,l)
);
}
);
width = 597;
}
);
note = D;
unicode = 68;
},
{
glyphname = E;
lastChange = "2021-03-03 17:51:32 +0000";
layers = (
{
hints = (
{
horizontal = 1;
place = (0, 151);
place = (0, 151);
type = Stem;
},
{
horizontal = 1;
place = (289, 67);
place = (289, 67);
type = Stem;
},
{
horizontal = 1;
place = (562, 63);
place = (562, 63);
type = Stem;
},
{
place = (38, 82);
place = (38, 82);
type = Stem;
}
);
layerId = "1F84B3B3-8E65-43E8-B723-492715F274E8";
shapes = (
{
closed = 1;
nodes = (
(391,289,l),
(390,356,l),
(119,356,l),
(119,562,l),
(430,562,l),
(430,625,l),
(37,625,l),
(37,0,l),
(434,0,l),
(436,95,l),
(120,95,l),
(120,289,l)
);
}
);
width = 473;
}
);
note = E;
unicode = 69;
},
{
glyphname = F;
lastChange = "2021-03-03 17:51:32 +0000";
layers = (
{
hints = (
{
horizontal = 1;
place = (0, 21);
target = up;
type = BottomGhost;
},
{
horizontal = 1;
place = (273, 67);
place = (273, 67);
type = Stem;
},
{
horizontal = 1;
place = (551, 67);
place = (551, 67);
type = Stem;
},
{
place = (49, 82);
place = (49, 82);
type = Stem;
}
);
layerId = "1F84B3B3-8E65-43E8-B723-492715F274E8";
shapes = (
{
closed = 1;
nodes = (
(377,273,l),
(377,340,l),
(123,340,l),
(118,551,l),
(419,551,l),
(419,618,l),
(40,618,l),
(37,0,l),
(135,0,l),
(125,273,l)
);
}
);
width = 463;
}
);
note = F;
unicode = 70;
},
{
glyphname = H;
lastChange = "2021-03-03 17:51:32 +0000";
layers = (
{
hints = (
{
horizontal = 1;
place = (0, 21);
target = up;
type = BottomGhost;
},
{
horizontal = 1;
place = (237, 116);
place = (237, 116);
type = Stem;
},
{
horizontal = 1;
place = (618, -20);
target = down;
type = TopGhost;
},
{
place = (410, 130);
place = (410, 130);
type = Stem;
},
{
place = (36, 81);
place = (36, 81);
type = Stem;
},
{
place = (429, 82);
place = (429, 82);
type = Stem;
},
{
place = (20, 126);
place = (20, 126);
type = Stem;
}
);
layerId = "1F84B3B3-8E65-43E8-B723-492715F274E8";
shapes = (
{
closed = 1;
nodes = (
(521,0,l),
(511,618,l),
(429,618,l),
(429,352,l),
(117,352,l),
(117,618,l),
(36,618,l),
(29,0,l),
(126,0,l),
(116,270,l),
(429,270,l),
(423,0,l)
);
}
);
width = 570;
}
);
note = H;
unicode = 72;
},
{
glyphname = I;
lastChange = "2021-03-03 17:51:32 +0000";
layers = (
{
hints = (
{
horizontal = 1;
place = (0, 21);
target = up;
type = BottomGhost;
},
{
horizontal = 1;
place = (618, -20);
target = down;
type = TopGhost;
},
{
place = (30, 125);
place = (30, 125);
type = Stem;
}
);
layerId = "1F84B3B3-8E65-43E8-B723-492715F274E8";
shapes = (
{
closed = 1;
nodes = (
(148,0,l),
(142,618,l),
(70,618,l),
(63,0,l)
);
},
{
closed = 1;
nodes = (
(56,573,l),
(108,573,l),
(108,618,l),
(56,618,l)
);
},
{
closed = 1;
nodes = (
(14,558,l),
(70,558,l),
(70,618,l),
(14,618,l)
);
},
{
closed = 1;
nodes = (
(142,558,l),
(198,558,l),
(198,618,l),
(142,618,l)
);
},
{
closed = 1;
nodes = (
(10,0,l),
(70,0,l),
(70,60,l),
(10,60,l)
);
},
{
closed = 1;
nodes = (
(142,0,l),
(199,0,l),
(199,60,l),
(142,60,l)
);
}
);
width = 209;
}
);
note = I;
unicode = 73;
},
{
glyphname = J;
lastChange = "2021-03-03 17:51:32 +0000";
layers = (
{
hints = (
{
horizontal = 1;
place = (-2, 149);
place = (-2, 149);
type = Stem;
},
{
horizontal = 1;
place = (624, -20);
target = down;
type = TopGhost;
},
{
place = (369, 82);
place = (369, 82);
type = Stem;
}
);
layerId = "1F84B3B3-8E65-43E8-B723-492715F274E8";
shapes = (
{
closed = 1;
nodes = (
(358,624,l),
(346,203,ls),
(345,169,o),
(336,140,o),
(317,121,cs),
(299,104,o),
(269,93,o),
(234,93,cs),
(195,93,o),
(167,102,o),
(149,119,cs),
(132,136,o),
(122,158,o),
(119,188,c),
(37,173,l),
(39,144,o),
(48,107,o),
(56,90,cs),
(64,74,o),
(73,62,o),
(90,46,cs),
(124,15,o),
(172,-1,o),
(233,-1,cs),
(292,-1,o),
(340,16,o),
(375,49,cs),
(411,82,o),
(427,127,o),
(428,186,cs),
(440,624,l)
);
}
);
width = 483;
}
);
note = J;
unicode = 74;
},
{
glyphname = K;
lastChange = "2021-03-03 17:51:32 +0000";
layers = (
{
hints = (
{
horizontal = 1;
place = (0, 21);
target = up;
type = BottomGhost;
},
{
horizontal = 1;
place = (618, -20);
target = down;
type = TopGhost;
},
{
place = (83, 81);
place = (83, 81);
type = Stem;
},
{
place = (59, 125);
place = (59, 125);
type = Stem;
}
);
layerId = "1F84B3B3-8E65-43E8-B723-492715F274E8";
shapes = (
{
closed = 1;
nodes = (
(238,285,l),
(452,0,l),
(569,0,l),
(288,335,l),
(537,618,l),
(439,618,l),
(164,312,l),
(164,618,l),
(83,618,l),
(75,0,l),
(171,0,l),
(164,209,l)
);
}
);
width = 630;
}
);
note = K;
unicode = 75;
},
{
glyphname = L;
lastChange = "2021-03-03 17:51:32 +0000";
layers = (
{
hints = (
{
horizontal = 1;
place = (0, 151);
place = (0, 151);
type = Stem;
},
{
horizontal = 1;
place = (618, -20);
target = down;
type = TopGhost;
},
{
place = (36, 90);
place = (36, 90);
type = Stem;
},
{
place = (36, 82);
place = (36, 82);
type = Stem;
}
);
layerId = "1F84B3B3-8E65-43E8-B723-492715F274E8";
shapes = (
{
closed = 1;
nodes = (
(121,95,l),
(118,618,l),
(36,618,l),
(36,0,l),
(414,0,l),
(417,95,l)
);
}
);
width = 470;
}
);
note = L;
unicode = 76;
},
{
glyphname = M;
lastChange = "2021-03-03 17:51:32 +0000";
layers = (
{
hints = (
{
horizontal = 1;
place = (0, 21);
target = up;
type = BottomGhost;
},
{
horizontal = 1;
place = (618, -20);
target = down;
type = TopGhost;
},
{
place = (75, 73);
place = (75, 73);
type = Stem;
},
{
place = (579, 127);
place = (579, 127);
type = Stem;
},
{
place = (48, 111);
place = (48, 111);
type = Stem;
}
);
layerId = "1F84B3B3-8E65-43E8-B723-492715F274E8";
shapes = (
{
closed = 1;
nodes = (
(180,618,l),
(75,618,l),
(66,0,l),
(157,0,l),
(152,241,l),
(148,499,l),
(341,0,l),
(424,0,l),
(616,500,l),
(606,241,l),
(599,0,l),
(696,0,l),
(690,618,l),
(584,618,l),
(383,129,l)
);
}
);
width = 780;
}
);
note = M;
unicode = 77;
},
{
glyphname = N;
lastChange = "2021-03-03 17:51:32 +0000";
layers = (
{
hints = (
{
horizontal = 1;
place = (0, 21);
target = up;
type = BottomGhost;
},
{
horizontal = 1;
place = (618, -20);
target = down;
type = TopGhost;
},
{
place = (80, 82);
place = (80, 82);
type = Stem;
},
{
place = (473, 86);
place = (473, 86);
type = Stem;
},
{
place = (57, 126);
place = (57, 126);
type = Stem;
}
);
layerId = "1F84B3B3-8E65-43E8-B723-492715F274E8";
shapes = (
{
closed = 1;
nodes = (
(560,0,l),
(554,618,l),
(473,618,l),
(473,156,l),
(162,618,l),
(80,618,l),
(71,0,l),
(168,0,l),
(162,476,l),
(462,0,l)
);
}
);
width = 628;
}
);
note = N;
unicode = 78;
},
{
glyphname = O;
lastChange = "2021-03-03 17:51:32 +0000";
layers = (
{
hints = (
{
horizontal = 1;
place = (-3, 151);
place = (-3, 151);
type = Stem;
},
{
horizontal = 1;
place = (566, 65);
place = (566, 65);
type = Stem;
},
{
place = (46, 81);
place = (46, 81);
type = Stem;
},
{
place = (462, 81);
place = (462, 81);
type = Stem;
}
);
layerId = "1F84B3B3-8E65-43E8-B723-492715F274E8";
shapes = (
{
closed = 1;
nodes = (
(407,328,l),
(407,399,o),
(392,454,o),
(364,492,c),
(335,530,o),
(295,549,o),
(244,549,c),
(194,549,o),
(154,530,o),
(126,492,c),
(97,454,o),
(82,401,o),
(81,333,c),
(81,301,l),
(81,237,o),
(93,193,o),
(122,153,c),
(151,114,o),
(194,94,o),
(245,94,c),
(296,94,o),
(339,113,o),
(367,150,c),
(395,187,o),
(407,233,o),
(407,295,c)
);
},
{
closed = 1;
nodes = (
(485,289,l),
(485,230,o),
(476,179,o),
(456,135,c),
(436,91,o),
(411,58,o),
(375,35,c),
(338,12,o),
(295,0,o),
(245,0,c),
(195,0,o),
(153,12,o),
(117,35,c),
(80,58,o),
(54,91,o),
(34,134,c),
(13,177,o),
(3,227,o),
(2,284,c),
(2,327,l),
(2,385,o),
(13,436,o),
(33,480,c),
(53,524,o),
(81,558,o),
(118,582,c),
(154,605,o),
(196,617,o),
(244,617,c),
(292,617,o),
(334,605,o),
(371,582,c),
(408,559,o),
(436,525,o),
(456,481,c),
(476,437,o),
(485,386,o),
(485,327,c)
);
}
);
width = 602;
}
);
note = O;
unicode = 79;
},
{
glyphname = P;
lastChange = "2021-03-03 17:51:32 +0000";
layers = (
{
hints = (
{
horizontal = 1;
place = (0, 21);
target = up;
type = BottomGhost;
},
{
horizontal = 1;
place = (242, 97);
place = (242, 97);
type = Stem;
},
{
horizontal = 1;
place = (551, 67);
place = (551, 67);
type = Stem;
},
{
place = (88, 85);
place = (88, 85);
type = Stem;
},
{
place = (416, 112);
place = (416, 112);
type = Stem;
},
{
place = (60, 121);
place = (60, 121);
type = Stem;
}
);
layerId = "1F84B3B3-8E65-43E8-B723-492715F274E8";
shapes = (
{
closed = 1;
nodes = (
(174,242,l),
(311,242,ls),
(381,242,o),
(435,258,o),
(472,290,cs),
(509,323,o),
(528,369,o),
(528,429,cs),
(528,486,o),
(509,532,o),
(471,566,cs),
(432,601,o),
(379,618,o),
(312,618,cs),
(88,618,l),
(79,0,l),
(176,0,l)
);
},
{
closed = 1;
nodes = (
(171,318,l),
(173,551,l),
(309,550,ls),
(352,550,o),
(382,538,o),
(405,516,cs),
(424,497,o),
(427,487,o),
(432,477,cs),
(437,466,o),
(439,450,o),
(439,432,cs),
(439,414,o),
(436,394,o),
(431,385,cs),
(426,375,o),
(425,366,o),
(405,349,cs),
(382,329,o),
(350,318,o),
(304,318,cs)
);
}
);
width = 600;
}
);
note = P;
unicode = 80;
},
{
glyphname = Q;
lastChange = "2021-03-03 17:51:32 +0000";
layers = (
{
hints = (
{
horizontal = 1;
place = (-21, 150);
place = (-21, 150);
type = Stem;
},
{
horizontal = 1;
place = (550, 63);
place = (550, 63);
type = Stem;
},
{
place = (46, 81);
place = (46, 81);
type = Stem;
},
{
place = (462, 81);
place = (462, 81);
type = Stem;
}
);
layerId = "1F84B3B3-8E65-43E8-B723-492715F274E8";
shapes = (
{
closed = 1;
nodes = (
(543,312,ls),
(541,373,o),
(533,426,o),
(513,472,cs),
(493,517,o),
(464,551,o),
(426,575,cs),
(388,599,o),
(344,612,o),
(295,612,cs),
(246,612,o),
(204,599,o),
(166,575,cs),
(128,551,o),
(99,517,o),
(78,471,cs),
(58,426,o),
(47,373,o),
(47,314,cs),
(47,270,ls),
(48,211,o),
(58,159,o),
(78,115,cs),
(99,70,o),
(128,37,o),
(166,12,cs),
(203,-12,o),
(247,-21,o),
(295,-21,cs),
(318,-21,o),
(336,-20,o),
(356,-15,c),
(481,-118,l),
(548,-65,l),
(440,23,l),
(474,47,o),
(497,77,o),
(516,120,cs),
(535,163,o),
(545,215,o),
(543,275,cs)
);
},
{
closed = 1;
nodes = (
(463,294,ls),
(462,222,o),
(446,170,o),
(418,131,cs),
(389,93,o),
(349,74,o),
(296,74,cs),
(244,74,o),
(203,94,o),
(173,135,cs),
(144,176,o),
(129,227,o),
(129,298,cs),
(129,340,ls),
(129,412,o),
(149,459,o),
(174,491,cs),
(199,524,o),
(243,550,o),
(294,550,cs),
(348,550,o),
(393,524,o),
(418,491,cs),
(443,458,o),
(463,407,o),
(463,335,cs)
);
}
);
width = 620;
}
);
note = Q;
unicode = 81;
},
{
glyphname = R;
lastChange = "2021-03-03 17:51:32 +0000";
layers = (
{
hints = (
{
horizontal = 1;
place = (1, 21);
target = up;
type = BottomGhost;
},
{
horizontal = 1;
place = (251, 103);
place = (251, 103);
type = Stem;
},
{
horizontal = 1;
place = (575, 44);
place = (575, 44);
type = Stem;
},
{
place = (74, 82);
place = (74, 82);
type = Stem;
},
{
place = (384, 111);
place = (384, 111);
type = Stem;
},
{
place = (53, 128);
place = (53, 128);
type = Stem;
}
);
layerId = "1F84B3B3-8E65-43E8-B723-492715F274E8";
shapes = (
{
closed = 1;
nodes = (
(301,251,l),
(430,1,l),
(530,1,l),
(530,6,l),
(378,269,l),
(415,283,o),
(443,304,o),
(464,332,cs),
(485,361,o),
(495,395,o),
(495,433,cs),
(495,494,o),
(477,541,o),
(440,572,cs),
(402,604,o),
(348,619,o),
(278,619,cs),
(74,619,l),
(67,1,l),
(164,1,l),
(158,251,l)
);
},
{
closed = 1;
nodes = (
(156,330,l),
(156,560,l),
(270,560,ls),
(296,560,o),
(305,559,o),
(321,556,cs),
(336,553,o),
(338,551,o),
(349,545,cs),
(356,540,o),
(371,531,o),
(379,521,cs),
(395,504,o),
(404,478,o),
(404,447,cs),
(404,409,o),
(392,382,o),
(368,361,cs),
(344,340,o),
(312,330,o),
(271,330,cs)
);
}
);
width = 600;
}
);
note = R;
unicode = 82;
},
{
glyphname = S;
lastChange = "2021-03-03 17:51:32 +0000";
layers = (
{
hints = (
{
horizontal = 1;
place = (-9, 149);
place = (-9, 149);
type = Stem;
},
{
horizontal = 1;
place = (563, 63);
place = (563, 63);
type = Stem;
},
{
place = (75, 82);
place = (75, 82);
type = Stem;
},
{
place = (402, 102);
place = (402, 102);
type = Stem;
}
);
layerId = "1F84B3B3-8E65-43E8-B723-492715F274E8";
shapes = (
{
closed = 1;
nodes = (
(331,266,o),
(356,257,o),
(379,240,cs),
(406,221,o),
(415,194,o),
(415,170,cs),
(415,147,o),
(407,126,o),
(385,110,cs),
(365,94,o),
(336,84,o),
(290,84,cs),
(241,84,o),
(211,97,o),
(189,115,cs),
(167,132,o),
(154,159,o),
(152,192,c),
(51,175,l),
(54,139,o),
(65,110,o),
(85,82,cs),
(105,54,o),
(133,31,o),
(170,15,cs),
(207,-1,o),
(247,-9,o),
(289,-9,cs),
(354,-9,o),
(407,6,o),
(446,36,cs),
(485,66,o),
(504,106,o),
(504,156,cs),
(504,188,o),
(497,215,o),
(483,238,cs),
(469,261,o),
(448,281,o),
(419,299,cs),
(390,316,o),
(349,332,o),
(298,347,cs),
(247,361,o),
(210,377,o),
(189,394,cs),
(168,412,o),
(157,433,o),
(157,458,cs),
(157,490,o),
(168,518,o),
(191,536,cs),
(213,554,o),
(245,563,o),
(285,563,cs),
(328,563,o),
(362,552,o),
(385,531,cs),
(409,509,o),
(421,480,o),
(425,440,c),
(502,449,l),
(498,485,o),
(486,516,o),
(475,533,cs),
(457,562,o),
(431,584,o),
(398,601,cs),
(365,617,o),
(327,625,o),
(285,625,cs),
(223,625,o),
(172,609,o),
(133,578,cs),
(94,546,o),
(75,506,o),
(75,457,cs),
(75,414,o),
(91,378,o),
(122,348,cs),
(154,319,o),
(205,303,o),
(275,282,cs)
);
}
);
width = 560;
}
);
note = S;
unicode = 83;
},
{
glyphname = T;
lastChange = "2021-03-03 17:51:32 +0000";
layers = (
{
hints = (
{
horizontal = 1;
place = (0, 21);
target = up;
type = BottomGhost;
},
{
horizontal = 1;
place = (537, 81);
place = (537, 81);
type = Stem;
},
{
place = (198, 128);
place = (198, 128);
type = Stem;
}
);
layerId = "1F84B3B3-8E65-43E8-B723-492715F274E8";
shapes = (
{
closed = 1;
nodes = (
(507,547,l),
(506,618,l),
(28,618,l),
(28,547,l),
(227,557,l),
(217,0,l),
(314,0,l),
(307,557,l)
);
}
);
width = 548;
}
);
note = T;
unicode = 84;
},
{
glyphname = U;
lastChange = "2021-03-03 17:51:32 +0000";
layers = (
{
hints = (
{
horizontal = 1;
place = (-10, 150);
place = (-10, 150);
type = Stem;
},
{
place = (43, 81);
place = (43, 81);
type = Stem;
},
{
place = (408, 82);
place = (408, 82);
type = Stem;
}
);
layerId = "1F84B3B3-8E65-43E8-B723-492715F274E8";
shapes = (
{
closed = 1;
nodes = (
(490,616,l),
(408,616,l),
(408,226,ls),
(408,181,o),
(395,147,o),
(371,122,cs),
(346,97,o),
(307,84,o),
(261,84,cs),
(215,84,o),
(179,100,o),
(158,122,cs),
(134,148,o),
(123,182,o),
(123,226,cs),
(123,616,l),
(43,616,l),
(43,198,ls),
(43,134,o),
(62,80,o),
(102,43,cs),
(142,7,o),
(198,-12,o),
(266,-10,cs),
(287,-10,ls),
(349,-6,o),
(399,15,o),
(435,52,cs),
(471,89,o),
(490,141,o),
(490,199,cs)
);
}
);
width = 540;
}
);
note = U;
unicode = 85;
},
{
glyphname = V;
lastChange = "2021-03-03 17:51:32 +0000";
layers = (
{
layerId = "1F84B3B3-8E65-43E8-B723-492715F274E8";
shapes = (
{
closed = 1;
nodes = (
(301,136,l),
(125,616,l),
(36,616,l),
(251,-1,l),
(350,-1,l),
(566,616,l),
(477,616,l)
);
}
);
width = 626;
}
);
note = V;
unicode = 86;
},
{
glyphname = W;
lastChange = "2021-03-03 17:51:32 +0000";
layers = (
{
hints = (
{
horizontal = 1;
place = (0, 21);
target = up;
type = BottomGhost;
},
{
horizontal = 1;
place = (618, -20);
target = down;
type = TopGhost;
},
{
place = (31, 81);
place = (31, 81);
type = Stem;
}
);
layerId = "1F84B3B3-8E65-43E8-B723-492715F274E8";
shapes = (
{
closed = 1;
nodes = (
(209,211,l),
(112,618,l),
(31,618,l),
(169,0,l),
(262,0,l),
(386,450,l),
(396,498,l),
(406,450,l),
(522,0,l),
(615,0,l),
(757,618,l),
(675,618,l),
(580,228,l),
(565,142,l),
(544,221,l),
(430,618,l),
(361,618,l),
(241,220,l),
(221,143,l)
);
}
);
width = 814;
}
);
note = W;
unicode = 87;
},
{
glyphname = X;
lastChange = "2021-03-03 17:51:32 +0000";
layers = (
{
hints = (
{
horizontal = 1;
place = (0, 21);
target = up;
type = BottomGhost;
},
{
horizontal = 1;
place = (618, -20);
target = down;
type = TopGhost;
}
);
layerId = "1F84B3B3-8E65-43E8-B723-492715F274E8";
shapes = (
{
closed = 1;
nodes = (
(302,367,l),
(153,618,l),
(57,618,l),
(254,303,l),
(44,0,l),
(165,0,l),
(302,237,l),
(438,0,l),
(561,0,l),
(351,303,l),
(546,618,l),
(450,618,l)
);
}
);
width = 638;
}
);
note = X;
unicode = 88;
},
{
glyphname = Y;
lastChange = "2021-03-03 17:51:32 +0000";
layers = (
{
hints = (
{
horizontal = 1;
place = (0, 21);
target = up;
type = BottomGhost;
},
{
horizontal = 1;
place = (618, -20);
target = down;
type = TopGhost;
}
);
layerId = "1F84B3B3-8E65-43E8-B723-492715F274E8";
shapes = (
{
closed = 1;
nodes = (
(284,310,l),
(124,618,l),
(31,618,l),
(241,230,l),
(232,0,l),
(334,0,l),
(326,230,l),
(538,618,l),
(445,618,l)
);
}
);
width = 596;
}
);
note = Y;
unicode = 89;
},
{
glyphname = Z;
lastChange = "2021-03-03 17:51:32 +0000";
layers = (
{
hints = (
{
horizontal = 1;
place = (0, 150);
place = (0, 150);
type = Stem;
},
{
horizontal = 1;
place = (551, 67);
place = (551, 67);
type = Stem;
}
);
layerId = "1F84B3B3-8E65-43E8-B723-492715F274E8";
shapes = (
{
closed = 1;
nodes = (
(135,95,l),
(463,558,l),
(463,618,l),
(32,618,l),
(32,551,l),
(365,551,l),
(27,79,l),
(27,0,l),
(474,0,l),
(483,95,l)
);
}
);
width = 540;
}
);
note = Z;
unicode = 90;
},
{
glyphname = a;
lastChange = "2021-03-03 17:51:32 +0000";
layers = (
{
hints = (
{
horizontal = 1;
place = (0, 21);
target = up;
type = BottomGhost;
},
{
horizontal = 1;
place = (241, 41);
place = (241, 41);
type = Stem;
},
{
horizontal = 1;
place = (418, 56);
place = (418, 56);
type = Stem;
},
{
place = (23, 80);
place = (23, 80);
type = Stem;
},
{
place = (301, 79);
place = (301, 79);
type = Stem;
},
{
horizontal = 1;
place = (-8, 131);
place = (-8, 131);
type = Stem;
},
{
place = (13, 84);
place = (13, 84);
type = Stem;
}
);
layerId = "1F84B3B3-8E65-43E8-B723-492715F274E8";
shapes = (
{
closed = 1;
nodes = (
(397,0,l),
(397,7,l),
(386,32,o),
(380,66,o),
(380,109,cs),
(380,323,ls),
(380,370,o),
(364,407,o),
(333,434,cs),
(303,460,o),
(261,474,o),
(207,474,cs),
(173,474,o),
(142,467,o),
(114,455,cs),
(86,442,o),
(64,425,o),
(47,403,cs),
(31,382,o),
(23,359,o),
(23,336,c),
(102,336,l),
(102,362,o),
(112,382,o),
(131,396,cs),
(150,411,o),
(174,418,o),
(203,418,cs),
(235,418,o),
(259,409,o),
(276,393,cs),
(293,376,o),
(301,354,o),
(301,327,cs),
(301,282,l),
(224,282,ls),
(157,282,o),
(105,269,o),
(68,242,cs),
(32,215,o),
(13,178,o),
(13,129,cs),
(13,89,o),
(28,56,o),
(57,30,cs),
(87,5,o),
(124,-8,o),
(170,-8,cs),
(221,-8,o),
(265,11,o),
(302,49,c),
(305,26,o),
(309,9,o),
(313,0,c)
);
},
{
closed = 1;
nodes = (
(148,84,o),
(136,84,o),
(120,96,cs),
(104,108,o),
(95,130,o),
(95,154,cs),
(94,172,o),
(102,191,o),
(125,207,cs),
(144,220,o),
(192,230,o),
(239,230,cs),
(300,230,l),
(299,148,l),
(298,147,o),
(296,142,o),
(294,138,cs),
(291,133,o),
(288,129,o),
(287,128,cs),
(286,126,o),
(285,125,o),
(282,122,cs),
(280,119,o),
(279,118,o),
(277,116,cs),
(275,114,o),
(270,110,o),
(269,109,cs),
(268,108,o),
(258,102,o),
(254,100,cs),
(236,89,o),
(209,84,o),
(166,84,cs)
);
}
);
width = 454;
}
);
note = a;
unicode = 97;
},
{
glyphname = b;
lastChange = "2021-03-03 17:51:32 +0000";
layers = (
{
hints = (
{
horizontal = 1;
place = (0, 21);
target = up;
type = BottomGhost;
},
{
horizontal = 1;
place = (425, 48);
place = (425, 48);
type = Stem;
},
{
place = (47, 73);
place = (47, 73);
type = Stem;
},
{
place = (358, 107);
place = (358, 107);
type = Stem;
},
{
horizontal = 1;
place = (-18, 143);
place = (-18, 143);
type = Stem;
}
);
layerId = "1F84B3B3-8E65-43E8-B723-492715F274E8";
shapes = (
{
closed = 1;
nodes = (
(448,235,ls),
(448,309,o),
(435,364,o),
(403,407,cs),
(388,427,o),
(367,444,o),
(348,454,cs),
(321,470,o),
(290,474,o),
(259,474,cs),
(203,474,o),
(158,454,o),
(126,414,c),
(127,660,l),
(48,660,l),
(47,0,l),
(120,0,l),
(124,50,l),
(139,30,o),
(164,10,o),
(194,0,cs),
(225,-10,o),
(236,-11,o),
(268,-11,cs),
(323,-11,o),
(367,10,o),
(399,53,cs),
(432,96,o),
(448,152,o),
(448,224,cs)
);
},
{
closed = 1;
nodes = (
(360,216,o),
(359,200,o),
(355,187,cs),
(351,174,o),
(347,150,o),
(329,125,cs),
(308,95,o),
(278,81,o),
(240,81,cs),
(188,81,o),
(150,105,o),
(126,154,c),
(126,333,l),
(155,395,o),
(193,425,o),
(238,425,cs),
(275,425,o),
(305,408,o),
(329,374,cs),
(340,358,o),
(345,343,o),
(349,330,cs),
(354,315,o),
(360,269,o),
(360,244,cs)
);
}
);
width = 510;
}
);
note = b;
unicode = 98;
},
{
glyphname = c;
lastChange = "2021-03-03 17:51:32 +0000";
layers = (
{
hints = (
{
horizontal = 1;
place = (-5, 151);
place = (-5, 151);
type = Stem;
},
{
horizontal = 1;
place = (425, 51);
place = (425, 51);
type = Stem;
},
{
place = (29, 80);
place = (29, 80);
type = Stem;
},
{
place = (345, 76);
place = (345, 76);
type = Stem;
}
);
layerId = "1F84B3B3-8E65-43E8-B723-492715F274E8";
shapes = (
{
closed = 1;
nodes = (
(195,88,o),
(163,100,o),
(141,129,cs),
(119,158,o),
(108,191,o),
(108,245,cs),
(108,264,ls),
(108,284,o),
(121,347,o),
(142,373,cs),
(165,401,o),
(195,425,o),
(235,425,cs),
(265,425,o),
(291,416,o),
(311,396,cs),
(332,377,o),
(343,338,o),
(345,308,c),
(421,315,l),
(416,364,o),
(400,399,o),
(365,430,cs),
(331,461,o),
(287,477,o),
(235,477,cs),
(193,477,o),
(156,467,o),
(125,448,cs),
(94,428,o),
(70,401,o),
(54,365,cs),
(37,330,o),
(29,290,o),
(29,245,cs),
(29,231,ls),
(29,158,o),
(47,100,o),
(85,58,cs),
(122,16,o),
(172,-5,o),
(236,-5,cs),
(236,-5,o),
(236,-5,o),
(236,-5,cs),
(262,-5,o),
(302,4,o),
(325,16,cs),
(354,30,o),
(376,50,o),
(393,74,cs),
(410,98,o),
(422,120,o),
(428,147,c),
(348,161,l),
(340,140,o),
(326,120,o),
(309,108,cs),
(291,95,o),
(263,88,o),
(236,88,cs)
);
}
);
width = 467;
}
);
note = c;
unicode = 99;
},
{
glyphname = d;
lastChange = "2021-03-03 17:51:32 +0000";
layers = (
{
hints = (
{
horizontal = 1;
place = (-8, 148);
place = (-8, 148);
type = Stem;
},
{
horizontal = 1;
place = (429, 44);
place = (429, 44);
type = Stem;
},
{
place = (32, 79);
place = (32, 79);
type = Stem;
},
{
place = (345, 91);
place = (345, 91);
type = Stem;
},
{
horizontal = 1;
place = (0, 21);
target = up;
type = BottomGhost;
},
{
place = (345, 79);
place = (345, 79);
type = Stem;
}
);
layerId = "1F84B3B3-8E65-43E8-B723-492715F274E8";
shapes = (
{
closed = 1;
nodes = (
(40,230,ls),
(40,159,o),
(57,101,o),
(91,57,cs),
(125,13,o),
(169,-9,o),
(223,-9,cs),
(279,-9,o),
(324,10,o),
(355,49,c),
(359,0,l),
(436,0,l),
(432,660,l),
(353,660,l),
(353,417,l),
(321,454,o),
(278,473,o),
(224,473,cs),
(169,473,o),
(125,451,o),
(91,408,cs),
(57,365,o),
(40,307,o),
(40,236,cs)
);
},
{
closed = 1;
nodes = (
(120,254,ls),
(120,269,o),
(124,308,o),
(126,318,cs),
(134,351,o),
(160,414,o),
(243,414,cs),
(293,414,o),
(329,391,o),
(353,348,c),
(353,153,l),
(330,108,o),
(293,85,o),
(242,85,cs),
(204,85,o),
(174,100,o),
(152,130,cs),
(131,159,o),
(120,198,o),
(120,254,cs)
);
}
);
width = 494;
}
);
note = d;
unicode = 100;
},
{
glyphname = e;
lastChange = "2021-03-03 17:51:32 +0000";
layers = (
{
hints = (
{
horizontal = 1;
place = (-10, 137);
place = (-10, 137);
type = Stem;
},
{
horizontal = 1;
place = (232, 41);
place = (232, 41);
type = Stem;
},
{
horizontal = 1;
place = (425, 47);
place = (425, 47);
type = Stem;
},
{
place = (28, 79);
place = (28, 79);
type = Stem;
},
{
place = (343, 80);
place = (343, 80);
type = Stem;
}
);
layerId = "1F84B3B3-8E65-43E8-B723-492715F274E8";
shapes = (
{
closed = 1;
nodes = (
(319,-10,o),
(377,20,o),
(416,80,c),
(368,131,l),
(352,116,o),
(313,97,o),
(299,91,cs),
(281,83,o),
(262,79,o),
(240,79,cs),
(197,79,o),
(165,93,o),
(142,121,cs),
(117,153,o),
(108,190,o),
(107,232,c),
(422,232,l),
(422,249,ls),
(421,313,o),
(412,365,o),
(372,412,cs),
(339,452,o),
(292,472,o),
(231,472,cs),
(194,472,o),
(160,462,o),
(128,441,cs),
(97,421,o),
(72,393,o),
(54,356,cs),
(37,320,o),
(28,279,o),
(28,233,cs),
(28,218,ls),
(28,149,o),
(48,93,o),
(87,52,cs),
(127,11,o),
(178,-10,o),
(241,-10,cs)
);
},
{
closed = 1;
nodes = (
(231,425,ls),
(264,425,o),
(291,414,o),
(310,391,cs),
(329,370,o),
(342,333,o),
(343,280,cs),
(343,274,l),
(110,274,l),
(117,329,o),
(130,368,o),
(150,390,cs),
(172,413,o),
(199,425,o),
(231,425,cs)
);
}
);
width = 463;
}
);
note = e;
unicode = 101;
},
{
glyphname = f;
lastChange = "2021-03-03 17:51:32 +0000";
layers = (
{
hints = (
{
horizontal = 1;
place = (0, 21);
target = up;
type = BottomGhost;
},
{
horizontal = 1;
place = (394, 71);
place = (394, 71);
type = Stem;
},
{
horizontal = 1;
place = (618, 51);
place = (618, 51);
type = Stem;
},
{
place = (124, 79);
place = (124, 79);
type = Stem;
}
);
layerId = "1F84B3B3-8E65-43E8-B723-492715F274E8";
shapes = (
{
closed = 1;
nodes = (
(116,0,l),
(211,0,l),
(204,407,l),
(303,401,l),
(303,465,l),
(204,465,l),
(204,519,ls),
(204,547,o),
(211,580,o),
(225,595,cs),
(239,610,o),
(259,618,o),
(284,618,cs),
(285,618,o),
(285,618,o),
(285,618,cs),
(300,618,o),
(314,617,o),
(327,614,c),
(332,662,l),
(314,667,o),
(296,669,o),
(277,669,cs),
(228,669,o),
(191,656,o),
(164,628,cs),
(137,601,o),
(124,563,o),
(124,513,cs),
(124,465,l),
(51,465,l),
(51,401,l),
(124,408,l)
);
}
);
width = 372;
}
);
note = f;
unicode = 102;
},
{
glyphname = g;
lastChange = "2021-03-03 17:51:32 +0000";
layers = (
{
hints = (
{
horizontal = 1;
place = (-200, 100);
place = (-200, 100);
type = Stem;
},
{
horizontal = 1;
place = (1, 149);
place = (1, 149);
type = Stem;
},
{
horizontal = 1;
place = (474, -20);
target = down;
type = TopGhost;
},
{
place = (25, 83);
place = (25, 83);
type = Stem;
},
{
place = (338, 80);
place = (338, 80);
type = Stem;
},
{
place = (345, 73);
place = (345, 73);
type = Stem;
},
{
horizontal = 1;
place = (415, 67);
place = (415, 67);
type = Stem;
}
);
layerId = "1F84B3B3-8E65-43E8-B723-492715F274E8";
shapes = (
{
closed = 1;
nodes = (
(25,170,o),
(42,110,o),
(76,66,cs),
(109,23,o),
(153,1,o),
(208,1,cs),
(263,1,o),
(306,19,o),
(338,56,c),
(338,16,ls),
(338,-18,o),
(327,-51,o),
(305,-73,cs),
(283,-95,o),
(254,-106,o),
(215,-106,cs),
(167,-106,o),
(125,-86,o),
(90,-46,c),
(49,-93,l),
(63,-119,o),
(90,-147,o),
(122,-161,cs),
(156,-176,o),
(187,-183,o),
(221,-183,cs),
(281,-183,o),
(328,-166,o),
(364,-131,cs),
(401,-95,o),
(418,-37,o),
(418,20,cs),
(418,474,l),
(345,474,l),
(341,423,l),
(310,463,o),
(265,483,o),
(209,483,cs),
(153,483,o),
(109,461,o),
(75,419,cs),
(42,376,o),
(25,318,o),
(25,246,cs)
);
},
{
closed = 1;
nodes = (
(106,293,o),
(117,342,o),
(138,370,cs),
(161,401,o),
(193,415,o),
(228,415,cs),
(277,415,o),
(314,393,o),
(338,349,c),
(338,163,l),
(315,118,o),
(277,95,o),
(227,95,cs),
(188,95,o),
(158,110,o),
(137,140,cs),
(119,166,o),
(109,198,o),
(108,237,cs),
(107,249,o),
(106,250,o),
(106,269,cs)
);
}
);
width = 462;
}
);
note = g;
unicode = 103;
},
{
glyphname = h;
lastChange = "2021-03-03 17:51:32 +0000";
layers = (
{
hints = (
{
horizontal = 1;
place = (0, 21);
target = up;
type = BottomGhost;
},
{
horizontal = 1;
place = (406, 83);
place = (406, 83);
type = Stem;
},
{
horizontal = 1;
place = (660, -20);
target = down;
type = TopGhost;
},
{
place = (65, 79);
place = (65, 79);
type = Stem;
},
{
place = (351, 84);
place = (351, 84);
type = Stem;
},
{
place = (41, 126);
place = (41, 126);
type = Stem;
}
);
layerId = "1F84B3B3-8E65-43E8-B723-492715F274E8";
shapes = (
{
closed = 1;
nodes = (
(144,660,l),
(65,660,l),
(57,0,l),
(152,0,l),
(144,331,l),
(155,354,o),
(170,372,o),
(190,385,cs),
(209,399,o),
(232,406,o),
(257,406,cs),
(289,406,o),
(313,398,o),
(328,382,cs),
(343,366,o),
(350,341,o),
(351,308,c),
(342,0,l),
(438,0,l),
(432,312,l),
(431,423,o),
(382,479,o),
(284,479,cs),
(227,479,o),
(179,452,o),
(144,409,c)
);
}
);
width = 530;
}
);
note = h;
unicode = 104;
},
{
glyphname = i;
lastChange = "2021-03-03 17:51:32 +0000";
layers = (
{
hints = (
{
horizontal = 1;
place = (0, 21);
target = up;
type = BottomGhost;
},
{
horizontal = 1;
place = (465, -20);
target = down;
type = TopGhost;
},
{
horizontal = 1;
place = (543, 91);
place = (543, 91);
type = Stem;
},
{
place = (59, 94);
place = (59, 94);
type = Stem;
}
);
layerId = "1F84B3B3-8E65-43E8-B723-492715F274E8";
shapes = (
{
closed = 1;
nodes = (
(60,575,o),
(64,565,o),
(72,556,cs),
(80,547,o),
(92,543,o),
(107,543,cs),
(122,543,o),
(134,547,o),
(142,556,cs),
(150,565,o),
(154,575,o),
(154,588,cs),
(154,601,o),
(150,612,o),
(142,621,cs),
(134,630,o),
(122,634,o),
(107,634,cs),
(92,634,o),
(80,630,o),
(72,621,cs),
(64,612,o),
(60,601,o),
(60,588,cs)
);
},
{
closed = 1;
nodes = (
(153,0,l),
(147,465,l),
(68,465,l),
(58,0,l)
);
}
);
width = 220;
}
);
note = i;
unicode = 105;
},
{
glyphname = j;
lastChange = "2021-03-03 17:51:32 +0000";
layers = (
{
hints = (
{
horizontal = 1;
place = (-189, 146);
place = (-189, 146);
type = Stem;
},
{
horizontal = 1;
place = (464, -20);
target = down;
type = TopGhost;
},
{
horizontal = 1;
place = (542, 91);
place = (542, 91);
type = Stem;
},
{
place = (155, 79);
place = (155, 79);
type = Stem;
},
{
place = (137, 79);
place = (137, 79);
type = Stem;
},
{
place = (153, 94);
place = (153, 94);
type = Stem;
}
);
layerId = "1F84B3B3-8E65-43E8-B723-492715F274E8";
shapes = (
{
closed = 1;
nodes = (
(234,464,l),
(155,464,l),
(149,-31,ls),
(149,-55,o),
(144,-71,o),
(135,-81,cs),
(126,-90,o),
(112,-95,o),
(94,-95,cs),
(79,-95,o),
(67,-94,o),
(58,-92,c),
(58,-181,l),
(74,-186,o),
(90,-189,o),
(106,-189,cs),
(187,-189,o),
(228,-144,o),
(228,-55,c)
);
},
{
closed = 1;
nodes = (
(150,574,o),
(153,564,o),
(161,555,cs),
(169,547,o),
(180,542,o),
(196,542,cs),
(211,542,o),
(223,546,o),
(231,555,cs),
(239,564,o),
(243,574,o),
(243,587,cs),
(243,600,o),
(239,611,o),
(231,620,cs),
(223,629,o),
(211,633,o),
(196,633,cs),
(181,633,o),
(169,629,o),
(161,620,cs),
(153,611,o),
(150,600,o),
(150,587,cs)
);
}
);
width = 316;
}
);
note = j;
unicode = 106;
},
{
glyphname = k;
lastChange = "2021-03-03 17:51:32 +0000";
layers = (
{
hints = (
{
horizontal = 1;
place = (-1, 21);
target = up;
type = BottomGhost;
},
{
horizontal = 1;
place = (464, -20);
target = down;
type = TopGhost;
},
{
horizontal = 1;
place = (659, -20);
target = down;
type = TopGhost;
},
{
place = (78, 80);
place = (78, 80);
type = Stem;
}
);
layerId = "1F84B3B3-8E65-43E8-B723-492715F274E8";
shapes = (
{
closed = 1;
nodes = (
(209,218,l),
(347,0,l),
(474,0,l),
(251,263,l),
(438,464,l),
(342,464,l),
(197,311,l),
(154,260,l),
(157,659,l),
(78,659,l),
(69,0,l),
(165,0,l),
(156,163,l)
);
}
);
width = 536;
}
);
note = k;
unicode = 107;
},
{
glyphname = l;
lastChange = "2021-03-03 17:51:32 +0000";
layers = (
{
hints = (
{
horizontal = 1;
place = (659, -20);
target = down;
type = TopGhost;
},
{
place = (38, 127);
place = (38, 127);
type = Stem;
},
{
place = (68, 79);
place = (68, 79);
type = Stem;
}
);
layerId = "1F84B3B3-8E65-43E8-B723-492715F274E8";
shapes = (
{
closed = 1;
nodes = (
(154,0,l),
(148,659,l),
(68,659,l),
(58,-1,l)
);
}
);
width = 224;
}
);
note = l;
unicode = 108;
},
{
glyphname = m;
lastChange = "2021-03-03 17:51:32 +0000";
layers = (
{
hints = (
{
horizontal = 1;
place = (-1, 21);
target = up;
type = BottomGhost;
},
{
horizontal = 1;
place = (464, -20);
target = down;
type = TopGhost;
},
{
place = (77, 76);
place = (77, 76);
type = Stem;
},
{
place = (361, 95);
place = (361, 95);
type = Stem;
},
{
place = (650, 75);
place = (650, 75);
type = Stem;
},
{
horizontal = 1;
place = (417, 55);
place = (417, 55);
type = Stem;
},
{
place = (36, 118);
place = (36, 118);
type = Stem;
}
);
layerId = "1F84B3B3-8E65-43E8-B723-492715F274E8";
shapes = (
{
closed = 1;
nodes = (
(153,464,l),
(77,464,l),
(62,-1,l),
(155,-1,l),
(154,339,l),
(164,362,o),
(178,381,o),
(197,396,cs),
(215,410,o),
(237,417,o),
(262,417,cs),
(328,417,o),
(369,384,o),
(369,316,c),
(360,-1,l),
(451,-1,l),
(447,313,l),
(450,346,o),
(457,372,o),
(478,391,cs),
(497,408,o),
(522,417,o),
(551,417,cs),
(587,417,o),
(612,409,o),
(628,393,cs),
(643,376,o),
(650,351,o),
(650,318,c),
(641,0,l),
(731,-1,l),
(726,311,ls),
(725,419,o),
(672,473,o),
(570,473,cs),
(537,473,o),
(507,466,o),
(483,452,cs),
(458,438,o),
(438,420,o),
(422,398,c),
(399,448,o),
(354,473,o),
(289,473,cs),
(231,473,o),
(186,453,o),
(151,413,c)
);
}
);
width = 800;
}
);
note = m;
unicode = 109;
},
{
glyphname = n;
lastChange = "2021-03-03 17:51:32 +0000";
layers = (
{
hints = (
{
horizontal = 1;
place = (-1, 21);
target = up;
type = BottomGhost;
},
{
horizontal = 1;
place = (464, -20);
target = down;
type = TopGhost;
},
{
place = (58, 72);
place = (58, 72);
type = Stem;
},
{
horizontal = 1;
place = (412, 60);
place = (412, 60);
type = Stem;
},
{
place = (20, 112);
place = (20, 112);
type = Stem;
},
{
place = (335, 79);
place = (335, 79);
type = Stem;
},
{
place = (328, 96);
place = (328, 96);
type = Stem;
}
);
layerId = "1F84B3B3-8E65-43E8-B723-492715F274E8";
shapes = (
{
closed = 1;
nodes = (
(133,464,l),
(58,464,l),
(45,0,l),
(132,-1,l),
(128,331,l),
(139,353,o),
(154,378,o),
(174,392,cs),
(193,405,o),
(216,412,o),
(242,412,cs),
(274,412,o),
(297,404,o),
(312,388,cs),
(327,372,o),
(335,347,o),
(335,314,cs),
(333,0,l),
(418,0,l),
(415,306,ls),
(414,417,o),
(364,473,o),
(266,473,cs),
(209,473,o),
(165,450,o),
(130,406,c)
);
}
);
width = 458;
}
);
note = n;
unicode = 110;
},
{
glyphname = o;
lastChange = "2021-03-03 17:51:32 +0000";
layers = (
{
hints = (
{
horizontal = 1;
place = (-3, 149);
place = (-3, 149);
type = Stem;
},
{
horizontal = 1;
place = (434, 44);
place = (434, 44);
type = Stem;
},
{
place = (14, 80);
place = (14, 80);
type = Stem;
},
{
place = (357, 80);
place = (357, 80);
type = Stem;
}
);
layerId = "1F84B3B3-8E65-43E8-B723-492715F274E8";
shapes = (
{
closed = 1;
nodes = (
(14,236,ls),
(14,164,o),
(33,106,o),
(72,62,cs),
(111,19,o),
(162,-3,o),
(225,-3,cs),
(267,-3,o),
(304,7,o),
(337,27,cs),
(369,47,o),
(394,75,o),
(411,111,cs),
(428,147,o),
(437,187,o),
(437,233,cs),
(437,238,ls),
(437,311,o),
(417,369,o),
(378,413,cs),
(339,457,o),
(288,479,o),
(225,479,cs),
(184,479,o),
(147,469,o),
(115,449,cs),
(83,429,o),
(58,401,o),
(40,365,cs),
(23,329,o),
(14,288,o),
(14,242,cs)
);
},
{
closed = 1;
nodes = (
(93,296,o),
(105,342,o),
(129,374,cs),
(153,405,o),
(185,421,o),
(224,421,cs),
(264,421,o),
(295,405,o),
(320,373,cs),
(342,346,o),
(357,299,o),
(357,257,cs),
(357,204,o),
(351,176,o),
(326,142,cs),
(305,115,o),
(268,96,o),
(225,96,cs),
(183,96,o),
(148,113,o),
(125,142,cs),
(101,171,o),
(94,204,o),
(93,244,cs)
);
}
);
width = 472;
}
);
note = o;
unicode = 111;
},
{
glyphname = p;
lastChange = "2021-03-03 17:51:32 +0000";
layers = (
{
hints = (
{
horizontal = 1;
place = (-179, 21);
target = up;
type = BottomGhost;
},
{
horizontal = 1;
place = (-9, 138);
place = (-9, 138);
type = Stem;
},
{
horizontal = 1;
place = (424, 48);
place = (424, 48);
type = Stem;
},
{
place = (37, 72);
place = (37, 72);
type = Stem;
},
{
place = (340, 83);
place = (340, 83);
type = Stem;
},
{
horizontal = 1;
place = (464, -20);
target = down;
type = TopGhost;
},
{
place = (20, 89);
place = (20, 89);
type = Stem;
}
);
layerId = "1F84B3B3-8E65-43E8-B723-492715F274E8";
shapes = (
{
closed = 1;
nodes = (
(423,234,ls),
(423,309,o),
(407,368,o),
(374,410,cs),
(342,452,o),
(298,473,o),
(242,473,cs),
(184,473,o),
(139,453,o),
(107,413,c),
(106,464,l),
(33,464,l),
(27,-179,l),
(110,-179,l),
(110,44,l),
(142,9,o),
(187,-9,o),
(243,-9,cs),
(298,-9,o),
(342,12,o),
(374,56,cs),
(407,99,o),
(423,156,o),
(423,227,cs)
);
},
{
closed = 1;
nodes = (
(342,195,o),
(331,154,o),
(309,125,cs),
(286,95,o),
(257,80,o),
(219,80,cs),
(170,80,o),
(134,101,o),
(110,143,c),
(110,341,l),
(141,397,o),
(177,412,o),
(218,412,cs),
(257,412,o),
(287,398,o),
(309,367,cs),
(333,335,o),
(342,301,o),
(342,251,cs)
);
}
);
width = 416;
}
);
note = p;
unicode = 112;
},
{
glyphname = q;
lastChange = "2021-03-03 17:51:32 +0000";
layers = (
{
hints = (
{
horizontal = 1;
place = (-179, 21);
target = up;
type = BottomGhost;
},
{
horizontal = 1;
place = (-9, 145);
place = (-9, 145);
type = Stem;
},
{
horizontal = 1;
place = (464, -20);
target = down;
type = TopGhost;
},
{
place = (45, 80);
place = (45, 80);
type = Stem;
},
{
place = (357, 79);
place = (357, 79);
type = Stem;
},
{
place = (347, 99);
place = (347, 99);
type = Stem;
},
{
horizontal = 1;
place = (426, 46);
place = (426, 46);
type = Stem;
}
);
layerId = "1F84B3B3-8E65-43E8-B723-492715F274E8";
shapes = (
{
closed = 1;
nodes = (
(45,230,ls),
(45,158,o),
(62,100,o),
(95,56,cs),
(128,13,o),
(173,-9,o),
(229,-9,cs),
(283,-9,o),
(325,8,o),
(357,42,c),
(354,-180,l),
(440,-180,l),
(437,464,l),
(364,464,l),
(360,417,l),
(328,454,o),
(285,473,o),
(230,473,cs),
(174,473,o),
(129,452,o),
(95,409,cs),
(62,366,o),
(45,309,o),
(45,236,cs)
);
},
{
closed = 1;
nodes = (
(125,289,o),
(133,335,o),
(157,366,cs),
(181,397,o),
(210,413,o),
(251,413,cs),
(294,413,o),
(324,400,o),
(357,346,c),
(358,143,l),
(335,105,o),
(300,82,o),
(250,82,cs),
(212,82,o),
(180,96,o),
(157,126,cs),
(133,156,o),
(125,203,o),
(125,244,cs)
);
}
);
width = 510;
}
);
note = q;
unicode = 113;
},
{
glyphname = r;
lastChange = "2021-03-03 17:51:32 +0000";
layers = (
{
hints = (
{
horizontal = 1;
place = (0, 21);
target = up;
type = BottomGhost;
},
{
horizontal = 1;
place = (397, 77);
place = (397, 77);
type = Stem;
},
{
place = (66, 77);
place = (66, 77);
type = Stem;
},
{
horizontal = 1;
place = (465, -20);
target = down;
type = TopGhost;
}
);
layerId = "1F84B3B3-8E65-43E8-B723-492715F274E8";
shapes = (
{
closed = 1;
nodes = (
(287,468,l),
(279,472,o),
(268,474,o),
(252,474,cs),
(204,474,o),
(167,453,o),
(141,411,c),
(143,465,l),
(66,465,l),
(54,0,l),
(146,0,l),
(142,330,l),
(161,375,o),
(196,397,o),
(248,397,cs),
(258,397,o),
(279,395,o),
(288,394,c)
);
}
);
width = 324;
}
);
note = r;
unicode = 114;
},
{
glyphname = s;
lastChange = "2021-03-03 17:51:32 +0000";
layers = (
{
hints = (
{
horizontal = 1;
place = (-12, 119);
place = (-12, 119);
type = Stem;
},
{
horizontal = 1;
place = (420, 49);
place = (420, 49);
type = Stem;
},
{
place = (70, 64);
place = (70, 64);
type = Stem;
},
{
place = (329, 80);
place = (329, 80);
type = Stem;
},
{
place = (331, 64);
place = (331, 64);
type = Stem;
}
);
layerId = "1F84B3B3-8E65-43E8-B723-492715F274E8";
shapes = (
{
closed = 1;
nodes = (
(329,118,o),
(320,100,o),
(302,88,cs),
(284,76,o),
(259,71,o),
(229,71,cs),
(196,71,o),
(171,78,o),
(153,93,cs),
(134,110,o),
(128,123,o),
(122,150,c),
(39,142,l),
(39,115,o),
(47,86,o),
(64,62,cs),
(80,39,o),
(102,20,o),
(131,7,cs),
(160,-6,o),
(193,-12,o),
(230,-12,cs),
(283,-12,o),
(326,0,o),
(359,25,cs),
(392,51,o),
(408,86,o),
(408,128,cs),
(408,153,o),
(403,178,o),
(391,195,cs),
(379,212,o),
(361,230,o),
(336,242,cs),
(311,254,o),
(279,265,o),
(239,274,cs),
(199,283,o),
(170,291,o),
(156,302,cs),
(141,314,o),
(134,327,o),
(134,344,cs),
(134,358,o),
(143,378,o),
(160,391,cs),
(176,404,o),
(199,409,o),
(228,409,cs),
(256,409,o),
(279,402,o),
(297,386,cs),
(316,370,o),
(331,346,o),
(331,325,c),
(401,331,l),
(398,374,o),
(386,402,o),
(355,429,cs),
(324,457,o),
(279,470,o),
(227,470,cs),
(176,470,o),
(133,458,o),
(103,430,cs),
(72,401,o),
(60,373,o),
(60,341,cs),
(60,321,o),
(64,301,o),
(75,284,cs),
(86,267,o),
(100,257,o),
(124,245,cs),
(148,233,o),
(180,223,o),
(220,214,cs),
(260,205,o),
(289,196,o),
(305,184,cs),
(321,172,o),
(329,158,o),
(329,139,cs)
);
}
);
width = 443;
}
);
note = s;
unicode = 115;
},
{
glyphname = t;
lastChange = "2021-03-03 17:51:32 +0000";
layers = (
{
hints = (
{
horizontal = 1;
place = (-8, 148);
place = (-8, 148);
type = Stem;
},
{
horizontal = 1;
place = (413, 52);
place = (413, 52);
type = Stem;
},
{
place = (151, 79);
place = (151, 79);
type = Stem;
},
{
horizontal = 1;
place = (401, 64);
place = (401, 64);
type = Stem;
}
);
layerId = "1F84B3B3-8E65-43E8-B723-492715F274E8";
shapes = (
{
closed = 1;
nodes = (
(233,578,l),
(154,578,l),
(151,465,l),
(66,465,l),
(66,402,l),
(151,406,l),
(151,115,ls),
(150,76,o),
(160,45,o),
(178,24,cs),
(196,2,o),
(222,-8,o),
(258,-8,cs),
(279,-8,o),
(299,-5,o),
(319,0,c),
(326,93,l),
(303,88,o),
(282,85,o),
(282,85,cs),
(264,85,o),
(250,90,o),
(242,99,cs),
(234,108,o),
(231,122,o),
(231,141,cs),
(231,406,l),
(317,402,l),
(317,465,l),
(230,465,l)
);
}
);
width = 388;
}
);
note = t;
unicode = 116;
},
{
glyphname = u;
lastChange = "2021-03-03 17:51:32 +0000";
layers = (
{
hints = (
{
horizontal = 1;
place = (-16, 150);
place = (-16, 150);
type = Stem;
},
{
horizontal = 1;
place = (466, -20);
target = down;
type = TopGhost;
},
{
place = (1, 80);
place = (1, 80);
type = Stem;
},
{
place = (287, 79);
place = (287, 79);
type = Stem;
}
);
layerId = "1F84B3B3-8E65-43E8-B723-492715F274E8";
shapes = (
{
closed = 1;
nodes = (
(290,1,l),
(367,1,l),
(367,466,l),
(287,466,l),
(288,154,l),
(268,109,o),
(228,84,o),
(167,84,cs),
(110,84,o),
(81,122,o),
(81,192,cs),
(80,466,l),
(1,466,l),
(1,155,ls),
(1,104,o),
(15,61,o),
(41,32,cs),
(67,3,o),
(104,-11,o),
(154,-11,cs),
(214,-11,o),
(258,11,o),
(289,47,c)
);
}
);
width = 407;
}
);
note = u;
unicode = 117;
},
{
glyphname = v;
lastChange = "2021-03-03 17:51:32 +0000";
layers = (
{
hints = (
{
horizontal = 1;
place = (0, 21);
target = up;
type = BottomGhost;
},
{
horizontal = 1;
place = (465, -20);
target = down;
type = TopGhost;
}
);
layerId = "1F84B3B3-8E65-43E8-B723-492715F274E8";
shapes = (
{
closed = 1;
nodes = (
(249,130,l),
(130,465,l),
(49,465,l),
(206,0,l),
(289,0,l),
(445,465,l),
(364,465,l)
);
}
);
width = 474;
}
);
note = v;
unicode = 118;
},
{
glyphname = w;
lastChange = "2021-03-03 17:51:32 +0000";
layers = (
{
hints = (
{
horizontal = 1;
place = (0, 21);
target = up;
type = BottomGhost;
},
{
horizontal = 1;
place = (452, -20);
target = down;
type = TopGhost;
}
);
layerId = "1F84B3B3-8E65-43E8-B723-492715F274E8";
shapes = (
{
closed = 1;
nodes = (
(501,121,l),
(393,452,l),
(331,452,l),
(226,126,l),
(137,452,l),
(60,452,l),
(180,0,l),
(264,0,l),
(361,362,l),
(459,0,l),
(543,0,l),
(665,452,l),
(588,452,l)
);
}
);
width = 754;
}
);
note = w;
unicode = 119;
},
{
glyphname = x;
lastChange = "2021-03-03 17:51:32 +0000";
layers = (
{
hints = (
{
horizontal = 1;
place = (0, 21);
target = up;
type = BottomGhost;
},
{
horizontal = 1;
place = (465, -20);
target = down;
type = TopGhost;
}
);
layerId = "1F84B3B3-8E65-43E8-B723-492715F274E8";
shapes = (
{
closed = 1;
nodes = (
(260,280,l),
(154,465,l),
(68,465,l),
(215,231,l),
(49,0,l),
(162,0,l),
(261,170,l),
(360,0,l),
(472,0,l),
(304,231,l),
(452,465,l),
(365,465,l)
);
}
);
width = 536;
}
);
note = x;
unicode = 120;
},
{
glyphname = y;
lastChange = "2021-03-03 17:51:32 +0000";
layers = (
{
hints = (
{
horizontal = 1;
place = (464, -20);
target = down;
type = TopGhost;
}
);
layerId = "1F84B3B3-8E65-43E8-B723-492715F274E8";
shapes = (
{
closed = 1;
nodes = (
(273,126,l),
(157,464,l),
(67,464,l),
(230,28,l),
(213,-14,ls),
(206,-34,o),
(191,-59,o),
(176,-72,cs),
(162,-83,o),
(143,-89,o),
(115,-85,cs),
(97,-83,l),
(97,-182,l),
(127,-187,l),
(142,-189,l),
(205,-189,o),
(252,-151,o),
(280,-73,cs),
(467,464,l),
(381,464,l)
);
}
);
width = 550;
}
);
note = y;
unicode = 121;
},
{
glyphname = z;
lastChange = "2021-03-03 17:51:32 +0000";
layers = (
{
layerId = "1F84B3B3-8E65-43E8-B723-492715F274E8";
shapes = (
{
closed = 1;
nodes = (
(176,100,l),
(424,407,l),
(424,464,l),
(71,464,l),
(71,398,l),
(324,398,l),
(67,86,l),
(67,-1,l),
(422,-2,l),
(429,101,l)
);
}
